<svg id="visual" viewBox="0 0 2600 1000" width="2600" height="1000" xmlns="http://www.w3.org/2000/svg" xmlns:xlink="http://www.w3.org/1999/xlink" version="1.1"><rect x="0" y="0" width="2600" height="1000" fill="#000000"></rect><path d="M0 877L72.2 879.2C144.3 881.3 288.7 885.7 433.2 887.5C577.7 889.3 722.3 888.7 866.8 880.5C1011.3 872.3 1155.7 856.7 1300 850.3C1444.3 844 1588.7 847 1733.2 851.7C1877.7 856.3 2022.3 862.7 2166.8 860.5C2311.3 858.3 2455.7 847.7 2527.8 842.3L2600 837L2600 1001L2527.8 1001C2455.7 1001 2311.3 1001 2166.8 1001C2022.3 1001 1877.7 1001 1733.2 1001C1588.7 1001 1444.3 1001 1300 1001C1155.7 1001 1011.3 1001 866.8 1001C722.3 1001 577.7 1001 433.2 1001C288.7 1001 144.3 1001 72.2 1001L0 1001Z" fill="#f3ccff"></path><path d="M0 882L72.2 884.3C144.3 886.7 288.7 891.3 433.2 900.2C577.7 909 722.3 922 866.8 921.8C1011.3 921.7 1155.7 908.3 1300 903.5C1444.3 898.7 1588.7 902.3 1733.2 900.7C1877.7 899 2022.3 892 2166.8 892C2311.3 892 2455.7 899 2527.8 902.5L2600 906L2600 1001L2527.8 1001C2455.7 1001 2311.3 1001 2166.8 1001C2022.3 1001 1877.7 1001 1733.2 1001C1588.7 1001 1444.3 1001 1300 1001C1155.7 1001 1011.3 1001 866.8 1001C722.3 1001 577.7 1001 433.2 1001C288.7 1001 144.3 1001 72.2 1001L0 1001Z" fill="#e3b3fc"></path><path d="M0 968L72.2 962.7C144.3 957.3 288.7 946.7 433.2 939.7C577.7 932.7 722.3 929.3 866.8 928.7C1011.3 928 1155.7 930 1300 934C1444.3 938 1588.7 944 1733.2 946.7C1877.7 949.3 2022.3 948.7 2166.8 952.5C2311.3 956.3 2455.7 964.7 2527.8 968.8L2600 973L2600 1001L2527.8 1001C2455.7 1001 2311.3 1001 2166.8 1001C2022.3 1001 1877.7 1001 1733.2 1001C1588.7 1001 1444.3 1001 1300 1001C1155.7 1001 1011.3 1001 866.8 1001C722.3 1001 577.7 1001 433.2 1001C288.7 1001 144.3 1001 72.2 1001L0 1001Z" fill="#d09cfa"></path></svg>