<svg id="visual" viewBox="0 0 2600 1000" width="2600" height="1000" xmlns="http://www.w3.org/2000/svg" xmlns:xlink="http://www.w3.org/1999/xlink" version="1.1"><rect x="0" y="0" width="2600" height="1000" fill="#000000"></rect><path d="M0 715L72.2 726C144.3 737 288.7 759 433.2 768.8C577.7 778.7 722.3 776.3 866.8 768.5C1011.3 760.7 1155.7 747.3 1300 734.3C1444.3 721.3 1588.7 708.7 1733.2 708.7C1877.7 708.7 2022.3 721.3 2166.8 728.5C2311.3 735.7 2455.7 737.3 2527.8 738.2L2600 739L2600 1001L2527.8 1001C2455.7 1001 2311.3 1001 2166.8 1001C2022.3 1001 1877.7 1001 1733.2 1001C1588.7 1001 1444.3 1001 1300 1001C1155.7 1001 1011.3 1001 866.8 1001C722.3 1001 577.7 1001 433.2 1001C288.7 1001 144.3 1001 72.2 1001L0 1001Z" fill="#f3ccff"></path><path d="M0 836L72.2 829.8C144.3 823.7 288.7 811.3 433.2 807.7C577.7 804 722.3 809 866.8 815.3C1011.3 821.7 1155.7 829.3 1300 828.7C1444.3 828 1588.7 819 1733.2 820.3C1877.7 821.7 2022.3 833.3 2166.8 842.8C2311.3 852.3 2455.7 859.7 2527.8 863.3L2600 867L2600 1001L2527.8 1001C2455.7 1001 2311.3 1001 2166.8 1001C2022.3 1001 1877.7 1001 1733.2 1001C1588.7 1001 1444.3 1001 1300 1001C1155.7 1001 1011.3 1001 866.8 1001C722.3 1001 577.7 1001 433.2 1001C288.7 1001 144.3 1001 72.2 1001L0 1001Z" fill="#e3b3fc"></path><path d="M0 879L72.2 884.2C144.3 889.3 288.7 899.7 433.2 900.5C577.7 901.3 722.3 892.7 866.8 885.2C1011.3 877.7 1155.7 871.3 1300 869.2C1444.3 867 1588.7 869 1733.2 870C1877.7 871 2022.3 871 2166.8 880.3C2311.3 889.7 2455.7 908.3 2527.8 917.7L2600 927L2600 1001L2527.8 1001C2455.7 1001 2311.3 1001 2166.8 1001C2022.3 1001 1877.7 1001 1733.2 1001C1588.7 1001 1444.3 1001 1300 1001C1155.7 1001 1011.3 1001 866.8 1001C722.3 1001 577.7 1001 433.2 1001C288.7 1001 144.3 1001 72.2 1001L0 1001Z" fill="#d09cfa"></path></svg>