<svg id="visual" viewBox="0 0 2600 1000" width="2600" height="1000" xmlns="http://www.w3.org/2000/svg" xmlns:xlink="http://www.w3.org/1999/xlink" version="1.1"><rect x="0" y="0" width="2600" height="1000" fill="#000000"></rect><path d="M0 786L72.2 794.2C144.3 802.3 288.7 818.7 433.2 826C577.7 833.3 722.3 831.7 866.8 825.8C1011.3 820 1155.7 810 1300 800.2C1444.3 790.3 1588.7 780.7 1733.2 780.7C1877.7 780.7 2022.3 790.3 2166.8 795.8C2311.3 801.3 2455.7 802.7 2527.8 803.3L2600 804L2600 1001L2527.8 1001C2455.7 1001 2311.3 1001 2166.8 1001C2022.3 1001 1877.7 1001 1733.2 1001C1588.7 1001 1444.3 1001 1300 1001C1155.7 1001 1011.3 1001 866.8 1001C722.3 1001 577.7 1001 433.2 1001C288.7 1001 144.3 1001 72.2 1001L0 1001Z" fill="#f3ccff"></path><path d="M0 877L72.2 872.3C144.3 867.7 288.7 858.3 433.2 855.7C577.7 853 722.3 857 866.8 861.7C1011.3 866.3 1155.7 871.7 1300 871C1444.3 870.3 1588.7 863.7 1733.2 864.8C1877.7 866 2022.3 875 2166.8 882.2C2311.3 889.3 2455.7 894.7 2527.8 897.3L2600 900L2600 1001L2527.8 1001C2455.7 1001 2311.3 1001 2166.8 1001C2022.3 1001 1877.7 1001 1733.2 1001C1588.7 1001 1444.3 1001 1300 1001C1155.7 1001 1011.3 1001 866.8 1001C722.3 1001 577.7 1001 433.2 1001C288.7 1001 144.3 1001 72.2 1001L0 1001Z" fill="#e3b3fc"></path><path d="M0 909L72.2 913C144.3 917 288.7 925 433.2 925.7C577.7 926.3 722.3 919.7 866.8 914C1011.3 908.3 1155.7 903.7 1300 902C1444.3 900.3 1588.7 901.7 1733.2 902.3C1877.7 903 2022.3 903 2166.8 910C2311.3 917 2455.7 931 2527.8 938L2600 945L2600 1001L2527.8 1001C2455.7 1001 2311.3 1001 2166.8 1001C2022.3 1001 1877.7 1001 1733.2 1001C1588.7 1001 1444.3 1001 1300 1001C1155.7 1001 1011.3 1001 866.8 1001C722.3 1001 577.7 1001 433.2 1001C288.7 1001 144.3 1001 72.2 1001L0 1001Z" fill="#d09cfa"></path></svg>