<svg id="visual" viewBox="0 0 2600 1000" width="2600" height="1000" xmlns="http://www.w3.org/2000/svg" xmlns:xlink="http://www.w3.org/1999/xlink" version="1.1"><rect x="0" y="0" width="2600" height="1000" fill="#000000"></rect><path d="M0 812L61.8 818.8C123.7 825.7 247.3 839.3 371.2 840C495 840.7 619 828.3 742.8 814.3C866.7 800.3 990.3 784.7 1114.2 775.2C1238 765.7 1362 762.3 1485.8 775.5C1609.7 788.7 1733.3 818.3 1857.2 826.7C1981 835 2105 822 2228.8 819.8C2352.7 817.7 2476.3 826.3 2538.2 830.7L2600 835L2600 1001L2538.2 1001C2476.3 1001 2352.7 1001 2228.8 1001C2105 1001 1981 1001 1857.2 1001C1733.3 1001 1609.7 1001 1485.8 1001C1362 1001 1238 1001 1114.2 1001C990.3 1001 866.7 1001 742.8 1001C619 1001 495 1001 371.2 1001C247.3 1001 123.7 1001 61.8 1001L0 1001Z" fill="#fa7268"></path><path d="M0 880L61.8 883.3C123.7 886.7 247.3 893.3 371.2 893.8C495 894.3 619 888.7 742.8 883.5C866.7 878.3 990.3 873.7 1114.2 873.8C1238 874 1362 879 1485.8 886C1609.7 893 1733.3 902 1857.2 899.8C1981 897.7 2105 884.3 2228.8 873C2352.7 861.7 2476.3 852.3 2538.2 847.7L2600 843L2600 1001L2538.2 1001C2476.3 1001 2352.7 1001 2228.8 1001C2105 1001 1981 1001 1857.2 1001C1733.3 1001 1609.7 1001 1485.8 1001C1362 1001 1238 1001 1114.2 1001C990.3 1001 866.7 1001 742.8 1001C619 1001 495 1001 371.2 1001C247.3 1001 123.7 1001 61.8 1001L0 1001Z" fill="#e34c67"></path><path d="M0 930L61.8 932.8C123.7 935.7 247.3 941.3 371.2 940C495 938.7 619 930.3 742.8 923.5C866.7 916.7 990.3 911.3 1114.2 912.8C1238 914.3 1362 922.7 1485.8 920.8C1609.7 919 1733.3 907 1857.2 906.3C1981 905.7 2105 916.3 2228.8 923.5C2352.7 930.7 2476.3 934.3 2538.2 936.2L2600 938L2600 1001L2538.2 1001C2476.3 1001 2352.7 1001 2228.8 1001C2105 1001 1981 1001 1857.2 1001C1733.3 1001 1609.7 1001 1485.8 1001C1362 1001 1238 1001 1114.2 1001C990.3 1001 866.7 1001 742.8 1001C619 1001 495 1001 371.2 1001C247.3 1001 123.7 1001 61.8 1001L0 1001Z" fill="#c62368"></path></svg>