<svg id="visual" viewBox="0 0 2600 1000" width="2600" height="1000" xmlns="http://www.w3.org/2000/svg" xmlns:xlink="http://www.w3.org/1999/xlink" version="1.1"><rect x="0" y="0" width="2600" height="1000" fill="#000000"></rect><path d="M0 839L72.2 843.3C144.3 847.7 288.7 856.3 433.2 847.8C577.7 839.3 722.3 813.7 866.8 799.5C1011.3 785.3 1155.7 782.7 1300 782.8C1444.3 783 1588.7 786 1733.2 792.3C1877.7 798.7 2022.3 808.3 2166.8 804.5C2311.3 800.7 2455.7 783.3 2527.8 774.7L2600 766L2600 1001L2527.8 1001C2455.7 1001 2311.3 1001 2166.8 1001C2022.3 1001 1877.7 1001 1733.2 1001C1588.7 1001 1444.3 1001 1300 1001C1155.7 1001 1011.3 1001 866.8 1001C722.3 1001 577.7 1001 433.2 1001C288.7 1001 144.3 1001 72.2 1001L0 1001Z" fill="#f3ccff"></path><path d="M0 898L72.2 898.2C144.3 898.3 288.7 898.7 433.2 890.5C577.7 882.3 722.3 865.7 866.8 854.3C1011.3 843 1155.7 837 1300 846.7C1444.3 856.3 1588.7 881.7 1733.2 891.5C1877.7 901.3 2022.3 895.7 2166.8 891.3C2311.3 887 2455.7 884 2527.8 882.5L2600 881L2600 1001L2527.8 1001C2455.7 1001 2311.3 1001 2166.8 1001C2022.3 1001 1877.7 1001 1733.2 1001C1588.7 1001 1444.3 1001 1300 1001C1155.7 1001 1011.3 1001 866.8 1001C722.3 1001 577.7 1001 433.2 1001C288.7 1001 144.3 1001 72.2 1001L0 1001Z" fill="#e3b3fc"></path><path d="M0 909L72.2 911.5C144.3 914 288.7 919 433.2 919.2C577.7 919.3 722.3 914.7 866.8 910.8C1011.3 907 1155.7 904 1300 912.2C1444.3 920.3 1588.7 939.7 1733.2 948C1877.7 956.3 2022.3 953.7 2166.8 951.8C2311.3 950 2455.7 949 2527.8 948.5L2600 948L2600 1001L2527.8 1001C2455.7 1001 2311.3 1001 2166.8 1001C2022.3 1001 1877.7 1001 1733.2 1001C1588.7 1001 1444.3 1001 1300 1001C1155.7 1001 1011.3 1001 866.8 1001C722.3 1001 577.7 1001 433.2 1001C288.7 1001 144.3 1001 72.2 1001L0 1001Z" fill="#d09cfa"></path></svg>