<svg id="visual" viewBox="0 0 2600 1000" width="2600" height="1000" xmlns="http://www.w3.org/2000/svg" xmlns:xlink="http://www.w3.org/1999/xlink" version="1.1"><rect x="0" y="0" width="2600" height="1000" fill="#000000"></rect><path d="M0 842L72.2 854.2C144.3 866.3 288.7 890.7 433.2 892.8C577.7 895 722.3 875 866.8 868.3C1011.3 861.7 1155.7 868.3 1300 875.5C1444.3 882.7 1588.7 890.3 1733.2 892.2C1877.7 894 2022.3 890 2166.8 883.5C2311.3 877 2455.7 868 2527.8 863.5L2600 859L2600 1001L2527.8 1001C2455.7 1001 2311.3 1001 2166.8 1001C2022.3 1001 1877.7 1001 1733.2 1001C1588.7 1001 1444.3 1001 1300 1001C1155.7 1001 1011.3 1001 866.8 1001C722.3 1001 577.7 1001 433.2 1001C288.7 1001 144.3 1001 72.2 1001L0 1001Z" fill="#f3ccff"></path><path d="M0 901L72.2 911.3C144.3 921.7 288.7 942.3 433.2 942.8C577.7 943.3 722.3 923.7 866.8 915.5C1011.3 907.3 1155.7 910.7 1300 920.5C1444.3 930.3 1588.7 946.7 1733.2 946.7C1877.7 946.7 2022.3 930.3 2166.8 929.2C2311.3 928 2455.7 942 2527.8 949L2600 956L2600 1001L2527.8 1001C2455.7 1001 2311.3 1001 2166.8 1001C2022.3 1001 1877.7 1001 1733.2 1001C1588.7 1001 1444.3 1001 1300 1001C1155.7 1001 1011.3 1001 866.8 1001C722.3 1001 577.7 1001 433.2 1001C288.7 1001 144.3 1001 72.2 1001L0 1001Z" fill="#d09cfa"></path></svg>